# xmcd
# Copyright (C) 1995-1998 Ti Kan
#
# Track frame offsets:
#       150
#       16532
#       33919
#       52711
#       66869
#       83899
#       99039
#       120652
#       139869
#       156722
#       179651
#       191774
#       210373
#
# Disc length: 3344 seconds
#
# Revision: 0
# Processed by: cddbd v1.5.2PL0 Copyright (c) Steve Scherf et al.
# Submitted via: CD-Import v1.0
#
DISCID=a50d0e0d
DTITLE=K-Os - Atlantis: Hymns For Disco
DYEAR=2006
DGENRE=
TTITLE0=Electrik Heat - The Seekwill
TTITLE1=The Rain
TTITLE2=Flypaper
TTITLE3=Equalizer
TTITLE4=Sunday Morning
TTITLE5=Mirror In The Sky
TTITLE6=Born To Run
TTITLE7=Valhalla
TTITLE8=Catdiesel
TTITLE9=Black Ice - Hymn For Disco
TTITLE10=Aquacity Boy
TTITLE11=Highway 7
TTITLE12=Ballad Of Noah
EXTD=
EXTT0=
EXTT1=
EXTT2=
EXTT3=
EXTT4=
EXTT5=
EXTT6=
EXTT7=
EXTT8=
EXTT9=
EXTT10=
EXTT11=
EXTT12=
PLAYORDER=
